# File created by Blade
# Date/Time:  Fri Jan 16 19:50:04 2015
#---------------------------------------------------------
:version 1.10
:name HOM
:units
  mass 1.0
  length 1.000000
  angle deg
:documentation
     Acclaim Skeleton File
:root
   axis xyz
   order TX TY TZ RX RY RZ
   position 0.000000 0.000000 0.000000
   orientation 0 0 0
:bonedata
   begin
      id 1
      name Spine_dum
      direction 0.000000 1.000000 0.000000
      length 7.067664
      axis 0.0 0.0 0.0 xyz
   end
   begin
      id 2
      name LeftUpLeg_dum
      direction 1.000000 0.000000 0.000000
      length 4.013002
      axis 0.0 0.0 0.0 xyz
   end
   begin
      id 3
      name RightUpLeg_dum
      direction -1.000000 0.000000 0.000000
      length 4.013002
      axis 0.0 0.0 0.0 xyz
   end
   begin
      id 4
      name Spine
      direction 0.000000 1.000000 0.000000
      length 0.000000
      axis 0.0 0.0 0.0 xyz
      dof rx ry rz
   end
   begin
      id 5
      name Spine_dum1
      direction 0.000000 1.000000 0.000000
      length 15.039886
      axis 0.0 0.0 0.0 xyz
   end
   begin
      id 6
      name Spine_dum2
      direction 0.000000 1.000000 0.000000
      length 10.530368
      axis 0.0 0.0 0.0 xyz
   end
   begin
      id 7
      name Spine_dum3
      direction 0.000000 1.000000 0.000000
      length 10.530368
      axis 0.0 0.0 0.0 xyz
   end
   begin
      id 8
      name Head
      direction 0.000000 1.000000 0.000000
      length 4.527550
      axis 0.0 0.0 0.0 xyz
      dof rx ry rz
   end
   begin
      id 9
      name LeftShoulder
      direction 1.000000 0.000000 0.000000
      length 7.028855
      axis 0.0 0.0 -90.0 xyz
      dof rx ry rz
   end
   begin
      id 10
      name LeftArm
      direction 1.000000 0.000000 0.000000
      length 10.797705
      axis 0.0 0.0 -90.0 xyz
      dof rx ry rz
   end
   begin
      id 11
      name LeftForeArm
      direction 1.000000 0.000000 0.000000
      length 7.907442
      axis 0.0 0.0 -90.0 xyz
      dof ry rz rx
   end
   begin
      id 12
      name LeftHand
      direction 0.000000 0.000000 0.000000
      length 0.000000
      axis 0.0 0.0 -90.0 xyz
      dof rx ry rz
   end
   begin
      id 13
      name LeftHand_dum1
      direction 0.000000 0.000000 0.000000
      length 0.000000
      axis 0.0 0.0 -90.0 xyz
   end
   begin
      id 14
      name LeftHand_dum2
      direction 1.000000 0.000000 0.000000
      length 3.937000
      axis 0.0 0.0 -90.0 xyz
   end
   begin
      id 15
      name LeftHandThumb1
      direction 0.000000 0.000000 1.000000
      length 3.937000
      axis 0.0 0.0 -90.0 xyz
      dof rx rz ry
   end
   begin
      id 16
      name RightShoulder
      direction -1.000000 0.000000 0.000000
      length 7.028855
      axis 0.0 0.0 90.0 xyz
      dof rx ry rz
   end
   begin
      id 17
      name RightArm
      direction -1.000000 0.000000 0.000000
      length 10.797705
      axis 0.0 0.0 90.0 xyz
      dof rx ry rz
   end
   begin
      id 18
      name RightForeArm
      direction -1.000000 0.000000 0.000000
      length 7.907442
      axis 0.0 0.0 90.0 xyz
      dof ry rz rx
   end
   begin
      id 19
      name RightHand
      direction 0.000000 0.000000 0.000000
      length 0.000000
      axis 0.0 0.0 90.0 xyz
      dof rx ry rz
   end
   begin
      id 20
      name RightHand_dum1
      direction 0.000000 0.000000 0.000000
      length 0.000000
      axis 0.0 0.0 90.0 xyz
   end
   begin
      id 21
      name RightHand_dum2
      direction -1.000000 0.000000 0.000000
      length 3.937000
      axis 0.0 0.0 90.0 xyz
   end
   begin
      id 22
      name RightHandThumb1
      direction 0.000000 0.000000 1.000000
      length 3.937000
      axis 0.0 0.0 90.0 xyz
      dof rx rz ry
   end
   begin
      id 23
      name LeftUpLeg
      direction 0.000000 -1.000000 0.000000
      length 16.899758
      axis 0.0 0.0 0.0 xyz
      dof rx ry rz
   end
   begin
      id 24
      name LeftLeg
      direction 0.000000 -1.000000 0.000000
      length 17.389183
      axis 0.0 0.0 0.0 xyz
      dof rx ry rz
   end
   begin
      id 25
      name LeftFoot
      direction 0.000000 -0.258819 0.965926
      length 4.924528
      axis 15.0 0.0 0.0 xyz
      dof rx ry rz
   end
   begin
      id 26
      name LeftToeBase
      direction 0.000000 0.000000 1.000000
      length 2.952750
      axis 0.0 0.0 0.0 xyz
      dof rx ry rz
   end
   begin
      id 27
      name RightUpLeg
      direction 0.000000 -1.000000 0.000000
      length 16.899758
      axis 0.0 0.0 0.0 xyz
      dof rx ry rz
   end
   begin
      id 28
      name RightLeg
      direction 0.000000 -1.000000 0.000000
      length 17.389183
      axis 0.0 0.0 0.0 xyz
      dof rx ry rz
   end
   begin
      id 29
      name RightFoot
      direction 0.000000 -0.258819 0.965926
      length 4.924528
      axis 15.0 0.0 0.0 xyz
      dof rx ry rz
   end
   begin
      id 30
      name RightToeBase
      direction 0.000000 0.000000 1.000000
      length 2.952750
      axis 0.0 0.0 0.0 xyz
      dof rx ry rz
   end
:hierarchy
   begin
      root Spine_dum LeftUpLeg_dum RightUpLeg_dum
      Spine_dum Spine
      LeftUpLeg_dum LeftUpLeg
      RightUpLeg_dum RightUpLeg
      Spine Spine_dum1 Spine_dum2 Spine_dum3
      Spine_dum1 Head
      Spine_dum2 LeftShoulder
      Spine_dum3 RightShoulder
      LeftShoulder LeftArm
      LeftArm LeftForeArm
      LeftForeArm LeftHand
      LeftHand LeftHand_dum1 LeftHand_dum2
      LeftHand_dum1 LeftHandThumb1
      RightShoulder RightArm
      RightArm RightForeArm
      RightForeArm RightHand
      RightHand RightHand_dum1 RightHand_dum2
      RightHand_dum1 RightHandThumb1
      LeftUpLeg LeftLeg
      LeftLeg LeftFoot
      LeftFoot LeftToeBase
      RightUpLeg RightLeg
      RightLeg RightFoot
      RightFoot RightToeBase
   end

# File created by Blade
# Date/Time:  Fri Jan 16 19:49:56 2015
# Frame Rate: 120.000 fps
#------------------------------------------------------
:FULLY-SPECIFIED
:DEGREES
30
root 19.375158 35.382632 -21.324719 -171.272179 -1.247932 -178.955389
Spine -19.821089 -0.071564 -0.278781
Head 10.101952 -1.880638 3.355561
LeftShoulder -12.134551 -37.434404 23.075960
LeftArm 5.581918 4.701186 -6.500753
LeftForeArm 13.782725 -0.000000 -1.715971
LeftHand -7.371310 -0.000000 -5.276020
LeftHandThumb1 -26.253704 0.000000 33.147579
RightShoulder -12.044791 -0.189880 -13.068101
RightArm 3.685835 39.186360 7.578063
RightForeArm -37.420409 0.000000 4.784588
RightHand -5.416568 -0.000000 9.983688
RightHandThumb1 -24.326973 -0.000000 -32.862282
LeftUpLeg -0.402189 9.807460 2.657037
LeftLeg -6.512819 -0.000000 0.000000
LeftFoot -20.257373 29.442436 -11.714531
LeftToeBase 27.080770 -0.000000 -0.000000
RightUpLeg -1.366266 -10.235617 -1.807685
RightLeg -3.082894 -0.000000 0.000000
RightFoot -20.919932 -24.450741 16.127383
RightToeBase 24.504025 -0.000000 -0.000000
31
root 19.376663 35.382131 -21.329727 -171.265457 -1.249497 -178.958360
Spine -19.817782 -0.078114 -0.293166
Head 10.087277 -1.915251 3.360225
LeftShoulder -12.128405 -37.441410 23.077207
LeftArm 5.581134 4.702201 -6.470972
LeftForeArm 13.809668 -0.000000 -1.721817
LeftHand -7.381113 -0.000000 -5.256775
LeftHandThumb1 -26.253704 0.000000 33.147579
RightShoulder -12.064349 -0.199341 -13.058128
RightArm 3.689032 39.177441 7.570419
RightForeArm -37.396387 -0.000000 4.777869
RightHand -5.383195 0.000000 9.998124
RightHandThumb1 -24.326973 -0.000000 -32.862282
LeftUpLeg -0.406659 9.787256 2.658732
LeftLeg -6.498304 -0.000000 0.000000
LeftFoot -20.281871 29.455264 -11.740053
LeftToeBase 27.069471 -0.000000 -0.000000
RightUpLeg -1.358771 -10.208660 -1.813550
RightLeg -3.089189 -0.000000 0.000000
RightFoot -20.936348 -24.453262 16.157259
RightToeBase 24.439548 -0.000000 -0.000000
32
root 19.377566 35.381555 -21.335835 -171.253725 -1.255679 -178.956703
Spine -19.825186 -0.081080 -0.299198
Head 10.077876 -1.946237 3.355708
LeftShoulder -12.116349 -37.433696 23.082810
LeftArm 5.564474 4.691339 -6.462506
LeftForeArm 13.839129 -0.000000 -1.706050
LeftHand -7.401675 -0.000000 -5.228282
LeftHandThumb1 -26.253704 0.000000 33.147579
RightShoulder -12.087270 -0.204338 -13.047457
RightArm 3.691882 39.152783 7.551707
RightForeArm -37.404197 -0.000000 4.767264
RightHand -5.365394 -0.000000 10.015943
RightHandThumb1 -24.326973 -0.000000 -32.862282
LeftUpLeg -0.408420 9.756941 2.665972
LeftLeg -6.499123 -0.000000 0.000000
LeftFoot -20.288160 29.467723 -11.746534
LeftToeBase 27.038121 -0.000000 -0.000000
RightUpLeg -1.360323 -10.206793 -1.812548
RightLeg -3.086594 -0.000000 0.000000
RightFoot -20.929288 -24.426908 16.192542
RightToeBase 24.389921 -0.000000 -0.000000
33
root 19.377821 35.381053 -21.341290 -171.241843 -1.253813 -178.958609
Spine -19.829978 -0.089494 -0.305779
Head 10.071174 -1.943186 3.358666
LeftShoulder -12.126204 -37.424329 23.096850
LeftArm 5.561293 4.693570 -6.447256
LeftForeArm 13.843756 0.000000 -1.700966
LeftHand -7.394098 -0.000000 -5.219713
LeftHandThumb1 -26.253704 0.000000 33.147579
RightShoulder -12.103990 -0.229248 -13.043687
RightArm 3.709603 39.161570 7.570766
RightForeArm -37.439167 0.000000 4.778837
RightHand -5.398981 -0.000000 9.993910
RightHandThumb1 -24.326973 -0.000000 -32.862282
LeftUpLeg -0.414018 9.749966 2.665194
LeftLeg -6.489847 -0.000000 0.000000
LeftFoot -20.299962 29.471688 -11.742241
LeftToeBase 27.075117 -0.000000 -0.000000
RightUpLeg -1.362469 -10.197119 -1.815821
RightLeg -3.085836 -0.000000 0.000000
RightFoot -20.949290 -24.431476 16.162730
RightToeBase 24.538850 -0.000000 -0.000000
34
root 19.378483 35.380422 -21.347346 -171.230622 -1.252281 -178.959924
Spine -19.839970 -0.104481 -0.313395
Head 10.078082 -1.990137 3.328458
LeftShoulder -12.133157 -37.416383 23.118826
LeftArm 5.546303 4.715127 -6.433101
LeftForeArm 13.841402 -0.000000 -1.691212
LeftHand -7.398578 -0.000000 -5.215740
LeftHandThumb1 -26.253704 0.000000 33.147579
RightShoulder -12.105893 -0.249864 -13.023304
RightArm 3.716933 39.146736 7.544719
RightForeArm -37.394657 -0.000000 4.748821
RightHand -5.373094 -0.000000 10.005650
RightHandThumb1 -24.326973 -0.000000 -32.862282
LeftUpLeg -0.412829 9.723869 2.667932
LeftLeg -6.491577 -0.000000 0.000000
LeftFoot -20.310003 29.483574 -11.760179
LeftToeBase 27.055217 -0.000000 -0.000000
RightUpLeg -1.365252 -10.209217 -1.816846
RightLeg -3.083021 -0.000000 0.000000
RightFoot -20.946534 -24.396624 16.204056
RightToeBase 24.388059 -0.000000 -0.000000
35
root 19.379162 35.380326 -21.352648 -171.215849 -1.256727 -178.953927
Spine -19.849015 -0.108086 -0.305453
Head 10.076052 -1.985420 3.323411
LeftShoulder -12.130354 -37.416392 23.116085
LeftArm 5.537827 4.724047 -6.419077
LeftForeArm 13.851709 -0.000000 -1.682487
LeftHand -7.416667 0.000000 -5.191568
LeftHandThumb1 -26.253704 0.000000 33.147579
RightShoulder -12.141056 -0.226458 -13.031241
RightArm 3.757508 39.140150 7.557700
RightForeArm -37.435655 -0.000000 4.718258
RightHand -5.359448 -0.000000 10.003512
RightHandThumb1 -24.326973 -0.000000 -32.862282
LeftUpLeg -0.428334 9.703384 2.677174
LeftLeg -6.472854 -0.000000 0.000000
LeftFoot -20.338381 29.493439 -11.774171
LeftToeBase 27.055036 -0.000000 -0.000000
RightUpLeg -1.369885 -10.141894 -1.816060
RightLeg -3.077269 -0.000000 0.000000
RightFoot -20.978884 -24.443906 16.206662
RightToeBase 24.468088 -0.000000 -0.000000
36
root 19.379497 35.379464 -21.358845 -171.212486 -1.261014 -178.955622
Spine -19.844363 -0.121515 -0.308936
Head 10.063710 -2.004141 3.314217
LeftShoulder -12.146010 -37.410749 23.129665
LeftArm 5.545329 4.749054 -6.406995
LeftForeArm 13.837652 -0.000000 -1.693470
LeftHand -7.405803 0.000000 -5.174541
LeftHandThumb1 -26.253704 0.000000 33.147579
RightShoulder -12.135381 -0.203312 -13.063090
RightArm 3.708167 39.110670 7.579001
RightForeArm -37.497734 -0.000000 4.782818
RightHand -5.416719 -0.000000 9.998189
RightHandThumb1 -24.326973 -0.000000 -32.862282
LeftUpLeg -0.427788 9.683261 2.680480
LeftLeg -6.459448 -0.000000 0.000000
LeftFoot -20.352938 29.499078 -11.771720
LeftToeBase 27.056828 -0.000000 -0.000000
RightUpLeg -1.360342 -10.148729 -1.820566
RightLeg -3.077918 -0.000000 0.000000
RightFoot -20.996037 -24.417595 16.221446
RightToeBase 24.505390 -0.000000 -0.000000
37
root 19.378798 35.378982 -21.364170 -171.203021 -1.256802 -178.968548
Spine -19.843531 -0.138898 -0.327237
Head 10.065115 -2.019648 3.292226
LeftShoulder -12.171079 -37.399809 23.159409
LeftArm 5.542177 4.766260 -6.403895
LeftForeArm 13.829151 -0.000000 -1.685007
LeftHand -7.437045 -0.000000 -5.148139
LeftHandThumb1 -26.253704 0.000000 33.147579
RightShoulder -12.139827 -0.199486 -13.049217
RightArm 3.711333 39.105779 7.569621
RightForeArm -37.506110 -0.000000 4.783361
RightHand -5.401783 -0.000000 9.997335
RightHandThumb1 -24.326973 -0.000000 -32.862282
LeftUpLeg -0.415788 9.623675 2.669417
LeftLeg -6.479057 -0.000000 0.000000
LeftFoot -20.360521 29.553248 -11.811909
LeftToeBase 27.027463 -0.000000 -0.000000
RightUpLeg -1.368533 -10.139439 -1.838618
RightLeg -3.061411 -0.000000 0.000000
RightFoot -21.007244 -24.438583 16.194212
RightToeBase 24.562307 -0.000000 -0.000000
38
root 19.378101 35.378609 -21.370569 -171.199701 -1.250978 -178.965147
Spine -19.840219 -0.142038 -0.319258
Head 10.055840 -2.004113 3.291842
LeftShoulder -12.192194 -37.390799 23.162409
LeftArm 5.551008 4.796195 -6.389664
LeftForeArm 13.815491 -0.000000 -1.680504
LeftHand -7.466192 -0.000000 -5.118332
LeftHandThumb1 -26.253704 0.000000 33.147579
RightShoulder -12.145082 -0.183961 -13.060990
RightArm 3.702654 39.034936 7.566574
RightForeArm -37.463878 -0.000000 4.793070
RightHand -5.412819 -0.000000 9.971357
RightHandThumb1 -24.326973 -0.000000 -32.862282
LeftUpLeg -0.406975 9.600096 2.675207
LeftLeg -6.477829 -0.000000 0.000000
LeftFoot -20.367075 29.579214 -11.799612
LeftToeBase 27.037303 -0.000000 -0.000000
RightUpLeg -1.364377 -10.131053 -1.838612
RightLeg -3.053272 -0.000000 0.000000
RightFoot -21.031788 -24.403393 16.239686
RightToeBase 24.458228 -0.000000 -0.000000
39
root 19.377880 35.378185 -21.377120 -171.197335 -1.246629 -178.956542
Spine -19.835400 -0.137108 -0.301506
Head 10.083003 -1.965473 3.257578
LeftShoulder -12.212867 -37.345903 23.145906
LeftArm 5.586157 4.767470 -6.382273
LeftForeArm 13.811204 -0.000000 -1.686932
LeftHand -7.478906 0.000000 -5.122703
LeftHandThumb1 -26.253704 0.000000 33.147579
RightShoulder -12.155705 -0.187094 -13.083151
RightArm 3.679787 39.056802 7.572406
RightForeArm -37.565825 0.000000 4.838357
RightHand -5.409139 -0.000000 10.014823
RightHandThumb1 -24.326973 -0.000000 -32.862282
LeftUpLeg -0.395071 9.571050 2.686523
LeftLeg -6.480039 -0.000000 0.000000
LeftFoot -20.383662 29.597749 -11.818266
LeftToeBase 27.000190 -0.000000 -0.000000
RightUpLeg -1.355124 -10.129723 -1.834749
RightLeg -3.052487 -0.000000 0.000000
RightFoot -21.042634 -24.378080 16.275434
RightToeBase 24.472818 -0.000000 -0.000000
40
root 19.377475 35.377686 -21.383625 -171.201300 -1.242644 -178.960036
Spine -19.821539 -0.146996 -0.301728
Head 10.090035 -1.926607 3.254168
LeftShoulder -12.241053 -37.301817 23.150365
LeftArm 5.603945 4.753862 -6.381500
LeftForeArm 13.791392 -0.000000 -1.677651
LeftHand -7.506791 -0.000000 -5.100195
LeftHandThumb1 -26.253704 0.000000 33.147579
RightShoulder -12.155598 -0.197513 -13.072836
RightArm 3.671091 38.996110 7.546747
RightForeArm -37.472783 -0.000000 4.845662
RightHand -5.404919 -0.000000 9.982305
RightHandThumb1 -24.326973 -0.000000 -32.862282
LeftUpLeg -0.380087 9.540350 2.689466
LeftLeg -6.473706 -0.000000 0.000000
LeftFoot -20.400820 29.614894 -11.831243
LeftToeBase 27.012293 -0.000000 -0.000000
RightUpLeg -1.343887 -10.134337 -1.843848
RightLeg -3.044843 -0.000000 0.000000
RightFoot -21.050142 -24.354803 16.280937
RightToeBase 24.498531 -0.000000 -0.000000
41
root 19.376864 35.376990 -21.390639 -171.207429 -1.240193 -178.961121
Spine -19.806599 -0.157702 -0.299066
Head 10.099798 -1.876460 3.259758
LeftShoulder -12.273342 -37.290601 23.162552
LeftArm 5.618254 4.766827 -6.386948
LeftForeArm 13.793126 -0.000000 -1.671852
LeftHand -7.523621 -0.000000 -5.057811
LeftHandThumb1 -26.253704 0.000000 33.147579
RightShoulder -12.154472 -0.194200 -13.079107
RightArm 3.658122 38.942392 7.548506
RightForeArm -37.486628 0.000000 4.867511
RightHand -5.422605 -0.000000 9.951784
RightHandThumb1 -24.326973 -0.000000 -32.862282
LeftUpLeg -0.368566 9.525735 2.693652
LeftLeg -6.456001 -0.000000 0.000000
LeftFoot -20.431518 29.612454 -11.842710
LeftToeBase 27.020852 -0.000000 -0.000000
RightUpLeg -1.329639 -10.144756 -1.851106
RightLeg -3.036181 -0.000000 0.000000
RightFoot -21.059925 -24.293537 16.363932
RightToeBase 24.362703 -0.000000 -0.000000
